HIERARCHY
ROOT Hips
{
  OFFSET 267.745 86.9975 -272.335
  CHANNELS 6 Xposition Yposition Zposition Zrotation Xrotation Yrotation
  JOINT LeftUpLeg
  {
    OFFSET 8.64259 1.95398 -2.38835
    CHANNELS 3 Zrotation Xrotation Yrotation
    JOINT LeftLeg
    {
      OFFSET 43.7702 0 0
      CHANNELS 3 Zrotation Xrotation Yrotation
      JOINT LeftFoot
      {
        OFFSET 40.6238 0 0
        CHANNELS 3 Zrotation Xrotation Yrotation
        JOINT LeftToeBase
        {
          OFFSET 12.7242 0 0
          CHANNELS 3 Zrotation Xrotation Yrotation
          End Site
          {
            OFFSET 0 0 0
          }
        }
      }
    }
  }
  JOINT RightUpLeg
  {
    OFFSET -8.2249 1.95398 -2.59336
    CHANNELS 3 Zrotation Xrotation Yrotation
    JOINT RightLeg
    {
      OFFSET 43.5653 0 0
      CHANNELS 3 Zrotation Xrotation Yrotation
      JOINT RightFoot
      {
        OFFSET 40.6238 0 0
        CHANNELS 3 Zrotation Xrotation Yrotation
        JOINT RightToeBase
        {
          OFFSET 12.7242 0 0
          CHANNELS 3 Zrotation Xrotation Yrotation
          End Site
          {
            OFFSET 0 0 0
          }
        }
      }
    }
  }
  JOINT Spine
  {
    OFFSET 0.165834 0.87714 6.61349
    CHANNELS 3 Zrotation Xrotation Yrotation
    JOINT Spine1
    {
      OFFSET 7.38963 1.71661e-005 0
      CHANNELS 3 Zrotation Xrotation Yrotation
      JOINT Spine2
      {
        OFFSET 11.9445 1.14441e-005 0
        CHANNELS 3 Zrotation Xrotation Yrotation
        JOINT Spine3
        {
          OFFSET 14.7254 4.19617e-005 0
          CHANNELS 3 Zrotation Xrotation Yrotation
          JOINT Spine4
          {
            OFFSET 10.9679 0 0
            CHANNELS 3 Zrotation Xrotation Yrotation
            JOINT RightShoulder
            {
              OFFSET 2.46616 -1.6653 3.69651
              CHANNELS 3 Zrotation Xrotation Yrotation
              JOINT RightArm
              {
                OFFSET 13.0012 0 0
                CHANNELS 3 Zrotation Xrotation Yrotation
                JOINT RightForeArm
                {
                  OFFSET 28.7848 1.52588e-005 0
                  CHANNELS 3 Zrotation Xrotation Yrotation
                  JOINT RightHand
                  {
                    OFFSET 26.5688 1.52588e-005 0
                    CHANNELS 3 Zrotation Xrotation Yrotation
                    End Site
                    {
                      OFFSET 0 0 0
                    }
                  }
                }
              }
            }
            JOINT LeftShoulder
            {
              OFFSET 2.38034 -1.29275 -3.7523
              CHANNELS 3 Zrotation Xrotation Yrotation
              JOINT LeftArm
              {
                OFFSET 16.3182 6.10352e-005 0
                CHANNELS 3 Zrotation Xrotation Yrotation
                JOINT LeftForeArm
                {
                  OFFSET 27.0901 0 0
                  CHANNELS 3 Zrotation Xrotation Yrotation
                  JOINT LeftHand
                  {
                    OFFSET 24.5451 1.52588e-005 0
                    CHANNELS 3 Zrotation Xrotation Yrotation
                    End Site
                    {
                      OFFSET 0 0 0
                    }
                  }
                }
              }
            }
            JOINT Neck
            {
              OFFSET 5.0226 -0.0266342 0
              CHANNELS 3 Zrotation Xrotation Yrotation
              JOINT Head
              {
                OFFSET 6.69364 2.86102e-005 0
                CHANNELS 3 Zrotation Xrotation Yrotation
                End Site
                {
                  OFFSET 0 0 0
                }
              }
            }
          }
        }
      }
    }
  }
}
MOTION
Frames:	7
Frame Time:	0.0416667
242.616 71.2607 247.99 -111.168 17.9691 -66.4143 -111.537 4.16706 173.418 169.623 59.1154 -177.684 46.3439 -18.6484 7.13486 93.9285 -10.2846 -5.32224 161.76 25.6352 97.7378 -70.7626 39.3888 -3.01207 -136.813 -31.6355 152.979 143.044 13.4029 39.9296 -3.89489 16.4811 -91.4212 -6.29801 -8.14035 -3.80966 -17.9479 -8.30002 -3.44593 -40.5876 -6.62007 -6.0845 -20.575 -6.62006 -6.08447 -96.7865 -71.517 82.1869 -38.3555 -6.09476 -18.3314 -174.313 4.76981 -37.4097 -10.4819 3.65114 -45.9202 163.037 -50.7622 -40.4779 1.84168 -44.399 -145.664 -5.05329 -29.4109 -0.0152516 -157.307 -57.8156 9.61249 125.435 -52.4917 9.01842 -47.2304 -39.9652 -8.7119 
243.246 71.3192 248.574 -110.762 17.1849 -66.4138 -112.234 5.79009 173.417 169.572 57.9837 -177.65 47.5476 -18.2427 7.50493 92.7187 -9.82838 -4.86094 161.654 25.808 97.4528 -70.6039 38.6215 -2.2037 -136.312 -31.9762 154.635 141.57 15.0664 41.5687 -3.90749 16.4948 -91.5622 -6.33984 -8.20837 -4.0946 -17.99 -8.38046 -3.72765 -40.6199 -6.59977 -6.37586 -20.6072 -6.59977 -6.37585 -96.5345 -71.3632 82.4212 -38.7257 -5.27857 -18.4339 -171.168 8.90424 -37.9142 -11.7602 4.08367 -45.6427 163.325 -50.2094 -40.505 2.57083 -45.0227 -144.755 -5.81032 -26.6428 -0.0148643 -158.239 -53.9495 8.03212 126.24 -51.7302 9.62245 -47.1691 -40.295 -8.55937 
245.042 71.4837 250.238 -109.614 14.9529 -66.3857 -114.187 10.1669 173.366 169.659 54.3167 -177.748 51.3336 -16.8625 9.0256 88.9725 -8.18822 -2.72761 161.457 26.502 96.6433 -70.2277 36.6581 0.0578287 -135.113 -32.855 159.156 137.748 18.6776 45.5873 -3.94026 16.526 -91.9651 -6.44552 -8.39622 -4.90705 -18.0971 -8.60377 -4.53128 -40.7032 -6.53641 -7.20444 -20.6905 -6.53641 -7.20443 -95.8296 -70.9275 83.0734 -39.7621 -2.97103 -18.7032 -153.079 29.1556 -44.5296 -18.1822 6.71083 -46.9909 164.099 -48.6469 -40.6225 4.68893 -46.6508 -142.127 -7.83037 -21.93 -0.0143223 -158.928 -46.1148 5.70646 128.374 -49.4845 11.1771 -46.9337 -41.2187 -7.9636 
247.86 71.7281 252.849 -107.852 11.4801 -66.2445 -117.161 16.3253 173.15 170.284 47.4572 -178.339 58.3908 -13.5462 12.7642 81.7021 -5.07402 2.68774 161.629 27.2864 95.05 -69.0779 34.0213 3.63233 -133.869 -34.0694 165.688 132.864 22.1994 50.3922 -3.98202 16.5525 -92.5969 -6.57086 -8.6719 -6.17492 -18.2256 -8.93475 -5.78633 -40.7855 -6.42184 -8.49132 -20.7728 -6.42185 -8.4913 -94.7507 -70.2481 84.0621 -41.3501 0.591842 -19.0572 -79.2025 51.9849 -98.6589 -23.4529 11.6546 -58.1592 165.187 -46.2321 -40.9146 8.10104 -48.7907 -137.926 -10.5957 -20.3166 0.115513 -158.145 -39.839 4.50625 131.321 -45.7585 13.1579 -46.4937 -42.5813 -6.51978 
251.573 72.0117 256.287 -105.618 7.03138 -65.8851 -120.97 23.2524 172.68 171.235 37.815 -179.21 69.1505 -6.26814 18.56 68.4054 -1.76057 11.5167 162.759 27.8741 92.4678 -66.7567 31.5444 8.37428 -133.279 -35.599 173.344 128.032 24.8053 54.9109 -4.02142 16.5477 -93.4151 -6.66181 -9.0008 -7.80654 -18.3226 -9.33471 -7.40296 -40.8076 -6.25169 -10.138 -20.795 -6.25168 -10.138 -93.381 -69.3655 85.3 -43.393 5.12951 -19.4043 -35.2586 37.0425 -130.949 -21.0639 12.2329 -66.6426 166.401 -43.1536 -41.4609 12.6919 -50.9436 -132.331 -14.5658 -22.5109 -1.93492 -156.294 -37.0647 4.4902 134.526 -40.5637 14.9785 -45.7773 -44.1369 -3.67669 
256.074 72.2816 260.438 -103.042 1.91264 -65.2398 -125.403 30.1419 171.796 171.969 27.6425 -179.529 82.817 5.35768 22.8211 47.8621 -1.08007 20.8624 165.415 27.7389 88.804 -62.7743 30.2063 14.0541 -133.855 -37.6685 -178.55 123.778 26.546 58.7588 -4.05078 16.4878 -94.3667 -6.66892 -9.35429 -9.69 -18.3393 -9.76987 -9.27081 -40.7167 -6.03352 -12.0289 -20.7041 -6.03354 -12.0289 -91.8187 -68.3266 86.6879 -45.821 10.3193 -19.6655 -24.3089 28.1533 -136.703 -19.9015 12.2265 -69.6764 167.577 -39.6344 -42.2999 18.2701 -52.7154 -125.602 -20.953 -26.2939 -8.35465 -153.598 -37.2157 5.48365 139.885 -26.878 11.7972 -50.8442 -41.4638 12.8952 
261.257 72.4719 265.187 -100.233 -3.55594 -64.281 -129.865 36.4858 169.583 172.742 18.2297 -179.671 97.7551 17.3585 22.4555 25.0378 -3.73446 27.6679 169.896 26.1671 84.3801 -56.5311 31.1583 20.0161 -135.875 -40.7284 -170.355 120.21 27.6914 61.9314 -4.06749 16.3566 -95.3907 -6.55564 -9.71222 -11.7011 -18.2393 -10.2145 -11.2668 -40.4774 -5.78649 -14.0398 -20.4647 -5.78649 -14.0398 -90.1805 -67.1878 88.1158 -48.5817 15.8198 -19.771 -19.3189 23.1428 -138.409 -19.7685 12.4988 -71.1885 168.575 -35.921 -43.4233 24.4945 -53.8303 -118.14 -29.0868 -30.367 -16.0506 -150.05 -39.0199 7.33318 141.029 -19.2871 10.0025 -46.733 -42.2944 23.2993 
